PathFileType	4	(X/Y/Z)	C:\Users\°ÂÌØÂü\Desktop\20210112\bx_n_5_901-Unnamed.trc
DataRate	CameraRate	NumFrames	NumMarkers	Units	OrigDataRate	OrigDataStartFrame	OrigNumFrames
50.00	50.00	       7	0	mm	50.00	1	       470
Frame#	Time	
		

1	0.000	-642.94397	118.50763	1847.65039	-708.33264	290.44208	1527.28772	-581.73938	-4.84462	1051.56958	-595.67157	243.61041	1062.63525	-577.73816	-5.20933	800.79639	-586.12280	224.53856	790.16833	-692.01367	271.02441	742.78333	-653.77985	39.45582	539.05975	-725.09949	251.44817	642.27258	-673.77710	206.38109	533.98499	-767.71948	257.68201	502.64157	-517.83649	-72.62013	143.37816	-547.66638	-23.94292	163.96169	-792.86865	38.17427	174.67509	-599.45880	27.55925	167.60686	-674.39850	53.07809	159.92691	-712.82739	153.55028	216.50822	-795.83246	178.61591	184.19087	-767.66315	227.00639	205.54347	-591.29767	217.68716	174.02182	-882.71997	296.25824	144.64258	-555.40747	255.50085	164.47681	-659.77557	297.74146	158.04993	-623.74182	306.30627	158.83150	-528.25195	304.42795	146.47839	-674.21619	-73.94479	1534.93250	-788.12415	89.85130	1057.87378	-757.57758	-47.28662	489.44113	-758.58575	-20.44797	207.07420				-875.95648	-78.79716	141.44162	-650.53015	-72.97216	871.07220	-674.77661	-63.31588	755.67157	-703.21234	-36.94263	615.61462	-713.43976	-35.15652	568.90643	-675.05554	171.55734	157.49857	-648.59863	-67.95198	161.87346	-590.81342	107.82681	1354.25171	-605.80511	-73.02463	158.08415	-682.49866	285.66656	871.76941	-689.24634	144.42624	574.85211	-727.39990	248.13275	575.98145	-664.27386	12.85445	519.66620	-718.64069	69.42166	217.01268	
2	0.020	-642.28564	118.64099	1847.61658	-707.41541	291.34872	1527.30334	-581.73938	-4.84462	1051.56958	-595.61157	243.78539	1062.78638	-577.88525	-5.38478	800.81464	-586.12280	224.53856	790.16833	-691.73181	270.91791	742.73004	-653.70923	39.50023	539.16675	-725.03949	251.54298	642.40997	-673.69226	206.31467	534.02698	-767.61316	257.69308	502.53619	-517.73193	-72.43026	143.47279	-547.71594	-24.05980	163.95952	-792.91669	38.22279	174.77080	-599.54517	27.58125	167.70000	-674.42017	53.19364	159.78963	-712.74115	153.59471	216.69016	-795.84485	178.51486	184.20103	-767.64667	227.00703	205.58829	-591.36267	217.62344	174.02478	-882.39606	296.09891	144.73637	-555.46057	255.45241	164.42427	-659.76141	297.56277	157.97391	-623.68109	306.17929	158.97040	-528.24139	304.17792	146.49892	-674.05920	-73.79398	1534.82849	-788.19366	90.03783	1057.88232	-757.63538	-47.13652	489.57401	-758.70959	-20.52592	207.11568				-875.95648	-78.79716	141.44162	-650.42938	-72.87605	871.02887	-674.93628	-63.09606	755.51349	-703.06708	-37.14184	615.73102	-713.54114	-35.17070	569.01587	-674.90332	171.44974	157.83244	-648.67261	-67.90860	161.81253	-590.65131	107.91633	1354.21924	-605.69177	-73.06423	158.48184	-682.28790	285.91071	871.93433	-689.42645	144.41797	574.69220	-727.50812	248.05859	575.85968	-664.30750	12.93915	519.47717	-718.64069	69.42166	217.01268	
3	0.040	-641.35480	118.96217	1847.69189	-707.25793	291.53333	1527.19775	-581.73938	-4.84462	1051.56958	-595.43707	243.66901	1062.46851	-577.58936	-5.29879	801.01465	-586.16315	224.62741	790.05383	-691.90796	271.05045	742.58380	-653.68689	39.61216	539.07233	-725.09949	251.44817	642.27258	-673.69226	206.31467	534.02698	-767.61316	257.69308	502.53619	-517.82001	-72.74759	143.50534	-547.67188	-23.99355	163.91525	-792.78479	38.36372	174.44374	-599.54211	27.49526	167.81354	-674.39850	53.07809	159.92691	-712.80518	153.66165	216.65109	-795.88055	178.57265	184.11621	-767.59399	227.13806	205.70604	-591.40222	217.73721	174.09344	-882.49988	296.07932	144.72237	-555.33234	255.34550	164.35304	-659.94067	297.71005	158.27431	-623.58105	306.19540	159.04926	-528.20941	304.30365	146.60254	-673.59033	-73.65186	1534.86804	-788.08380	90.38680	1057.88367	-757.53369	-47.19491	489.41840	-758.81427	-20.59426	207.14108				-875.85522	-78.73365	141.22168	-650.46899	-72.79357	871.05627	-674.60382	-63.41669	755.89612	-703.21234	-36.94263	615.61462	-713.46002	-35.06942	569.02905	-675.06903	171.35158	157.81850	-648.68811	-67.99270	161.74025	-590.37054	108.21345	1354.39783	-605.82782	-73.19981	158.29953	-682.12347	286.11484	872.04724	-689.30011	144.54057	574.44836	-727.36694	247.97566	575.76831	-664.30750	12.93915	519.47717	-718.64069	69.42166	217.01268	
4	0.060	-640.84937	118.93082	1847.49426	-706.89081	291.75388	1527.14307	-581.73938	-4.84462	1051.56958	-595.66254	243.68753	1062.38232	-577.65057	-5.34589	800.83813	-585.95227	224.71988	790.39154	-691.68311	271.23828	742.87164	-653.68689	39.61216	539.07233	-725.03949	251.54298	642.40997	-673.64642	206.42697	534.10083	-767.61316	257.69308	502.53619	-517.66034	-72.60463	143.50838	-547.61707	-23.92373	163.87781	-792.90442	38.33978	174.65359	-599.71954	27.50452	167.58324	-674.39850	53.07809	159.92691	-712.74115	153.59471	216.69016	-795.88055	178.57265	184.11621	-767.62476	227.17839	205.58516	-591.42456	217.65985	174.20074	-882.57434	296.15549	144.64362	-555.34418	255.39618	164.49072	-659.81635	297.57581	157.96466	-623.62683	306.13846	158.91621	-528.17999	304.44327	146.65176	-673.33740	-73.52132	1534.98462	-788.10413	90.44334	1057.79736	-757.54065	-47.22916	489.56873	-758.81427	-20.59426	207.14108				-875.95648	-78.79716	141.44162	-650.42139	-72.62927	871.01355	-674.65424	-62.96549	755.68811	-703.02429	-37.19467	615.59418	-713.34082	-34.99985	568.97424	-674.98914	171.62778	157.45322	-648.75366	-67.99149	161.76460	-589.99951	108.30299	1354.40002	-605.67773	-73.20109	158.44650	-681.88531	286.49652	872.11267	-689.16534	144.73399	574.59387	-727.29492	248.16879	575.79578	-664.23132	13.08091	519.42175	-718.71173	69.44594	216.90517	
5	0.080	-640.22046	119.25674	1847.59509	-706.66681	291.76941	1527.16553	-581.69421	-4.73611	1051.52551	-595.61871	243.67070	1062.26147	-577.73816	-5.20933	800.79639	-585.84546	224.93880	790.25732	-691.92511	271.26038	742.71082	-653.50378	39.83284	538.74377	-724.90491	251.70015	642.45062	-673.63379	206.50334	534.04962	-767.61316	257.69308	502.53619	-517.65045	-72.68132	143.58713	-547.69019	-23.90033	163.95657	-792.92676	38.31926	174.57814	-599.54211	27.49526	167.81354	-674.33844	52.95571	159.69099	-712.76337	153.48334	216.54727	-795.87170	178.54128	184.25214	-767.72375	227.08411	205.63406	-591.28790	217.65988	173.95927	-882.53021	296.19693	144.72672	-555.30072	255.33391	164.46906	-659.74597	297.57205	157.78448	-623.69360	306.44958	158.79457	-528.30536	304.21851	146.62169	-673.01038	-73.35397	1535.04016	-788.08264	90.57861	1057.72717	-757.36896	-47.24823	489.53323	-758.58575	-20.44797	207.07420				-875.96130	-78.84709	141.39201	-650.36816	-72.69743	871.01294	-674.65234	-62.68486	755.76556	-703.21234	-36.94263	615.61462	-713.20319	-34.97357	568.81897	-674.76410	171.35988	157.97253	-648.75366	-67.99149	161.76460	-589.82660	108.46095	1354.44092	-605.90460	-73.17817	158.20161	-681.79596	286.53506	872.25690	-689.29541	144.47913	574.83942	-727.29346	248.10753	575.86627	-664.15527	13.27473	519.65527	-718.64069	69.42166	217.01268	
6	0.100	-639.35162	119.65794	1847.66345	-706.37445	291.75864	1527.22815	-581.81885	-4.79386	1051.70703	-595.51270	244.01141	1062.56995	-577.55609	-5.22324	800.86682	-585.79242	225.04832	790.21655	-691.59381	271.39761	742.78424	-653.50739	39.92758	538.79578	-724.79034	251.76445	642.50287	-673.62122	206.57973	533.99847	-767.35645	257.88007	502.46292	-517.67700	-72.75092	143.40729	-547.61157	-23.87311	163.92426	-792.91833	38.16146	174.80176	-599.54517	27.58125	167.70000	-674.36011	53.07127	159.55371	-712.77814	153.58545	216.64082	-796.00787	178.55905	184.18611	-767.65002	227.07478	205.61894	-591.45276	217.62688	173.94409	-882.43616	296.14734	144.72641	-555.34082	255.37233	164.54677	-659.68225	297.57605	157.90492	-623.74182	306.30627	158.83150	-528.38605	304.27756	146.53311	-672.69128	-73.28722	1535.05444	-787.88519	90.65806	1057.70361	-757.47119	-47.23278	489.63437	-758.60858	-20.54952	207.15384				-875.85034	-78.68372	141.27127	-650.42139	-72.62927	871.01355	-674.48639	-62.90376	756.00873	-703.02960	-36.90047	615.54144	-713.34082	-34.99985	568.97424	-674.76410	171.35988	157.97253	-648.52893	-67.92911	161.91493	-589.81360	108.58574	1354.43054	-605.80884	-73.26347	158.45496	-681.88531	286.49652	872.11267	-689.03430	144.79515	574.74115	-727.19727	247.99812	575.86975	-664.01044	13.17777	519.61981	-718.64069	69.42166	217.01268	
7	0.120	-638.67719	119.60670	1847.53064	-705.52905	291.70203	1527.30225	-581.85144	-4.69289	1051.60486	-595.59851	244.15776	1062.61353	-577.67438	-5.24508	800.74493	-585.66364	225.15717	790.44543	-691.27643	271.54663	742.87042	-653.39386	39.96532	538.54663	-724.69611	251.83783	642.51959	-673.74353	206.74449	533.87854	-767.34918	257.74789	502.28131	-517.55988	-72.69231	143.53625	-547.57794	-23.92735	163.89522	-792.80652	38.25793	174.63005	-599.72253	27.59050	167.46967	-674.39850	53.07809	159.92691	-712.80518	153.66165	216.65109	-795.73840	178.53021	183.99129	-767.64014	227.23834	205.52916	-591.36700	217.73991	174.04254	-882.55072	296.24280	144.74985	-555.38995	255.34503	164.50859	-659.83356	297.72833	158.03108	-623.67316	306.22473	158.89201	-528.30585	304.29242	146.58966	-672.34558	-73.28577	1535.12354	-788.09369	90.82354	1057.99902	-757.47119	-47.23278	489.63437	-758.81427	-20.59426	207.14108				-875.85034	-78.68372	141.27127	-650.52026	-72.61191	871.14349	-674.43243	-62.52676	756.08618	-702.95972	-36.88514	615.85370	-713.00244	-34.85933	568.93054	-674.90332	171.44974	157.83244	-648.67261	-67.90860	161.81253	-589.42743	108.65118	1354.43579	-605.90674	-73.06583	158.23297	-681.68567	286.71613	872.28223	-689.16064	144.67255	574.98492	-727.29346	248.10753	575.86627	-664.17340	13.28948	519.51569	-718.74884	69.39018	216.88591	
